<?xml version="1.0" standalone="no"?>
<!DOCTYPE svg PUBLIC "-//W3C//DTD SVG 20010904//EN"
 "http://www.w3.org/TR/2001/REC-SVG-20010904/DTD/svg10.dtd">
<svg version="1.0" xmlns="http://www.w3.org/2000/svg"
 width="656.000000pt" height="656.000000pt" viewBox="0 0 656.000000 656.000000"
 preserveAspectRatio="xMidYMid meet">
<metadata>
Created by potrace 1.14, written by Peter Selinger 2001-2017
</metadata>
<g transform="translate(0.000000,656.000000) scale(0.100000,-0.100000)"
fill="#000000" stroke="none">
<path d="M1819 6516 c-2 -3 -27 -7 -54 -10 -61 -7 -112 -15 -145 -22 -14 -3
-38 -8 -55 -10 -16 -3 -41 -9 -55 -14 -14 -5 -36 -12 -50 -14 -33 -6 -187 -59
-236 -81 -61 -28 -195 -94 -242 -121 -41 -23 -211 -140 -222 -153 -3 -3 -27
-24 -54 -45 -48 -39 -182 -170 -222 -218 -49 -58 -143 -187 -175 -239 -19 -30
-40 -64 -46 -75 -14 -22 -103 -201 -103 -207 0 -3 -7 -22 -16 -43 -9 -22 -16
-40 -15 -42 1 -1 -5 -15 -12 -30 -16 -31 -66 -206 -72 -249 -2 -15 -4 -28 -5
-28 -4 0 -15 -68 -29 -180 -10 -76 -8 -2890 2 -2940 3 -16 9 -52 13 -80 4 -27
8 -52 9 -55 2 -6 15 -67 19 -90 2 -8 6 -22 9 -30 4 -8 8 -26 11 -40 13 -72 70
-218 145 -370 38 -78 178 -302 200 -320 3 -3 31 -34 60 -70 132 -157 338 -329
516 -430 83 -48 231 -120 246 -120 8 0 19 -4 25 -9 24 -23 309 -101 424 -116
30 -4 64 -10 75 -13 34 -11 2944 -12 3015 -1 36 5 83 12 105 15 22 3 42 7 45
9 3 2 26 6 50 10 25 3 56 10 70 15 14 6 36 12 50 14 14 3 26 5 28 7 2 2 2 2
47 14 17 4 35 10 40 14 6 3 12 6 15 6 6 0 64 23 110 42 123 53 311 157 318
175 2 4 8 8 13 8 9 0 93 56 119 80 9 8 38 33 65 55 92 75 186 174 308 324 35
44 152 237 188 311 32 66 65 143 89 205 35 92 77 250 86 320 3 27 7 52 9 55
16 27 20 329 20 1560 0 784 -3 1441 -7 1460 -4 19 -10 58 -13 85 -4 28 -9 59
-12 70 -3 11 -7 29 -8 40 -7 58 -90 318 -118 370 -6 11 -11 22 -12 25 0 13
-80 165 -87 168 -4 2 -8 8 -8 14 0 11 -133 212 -153 233 -7 6 -32 36 -57 66
-45 54 -200 212 -200 204 0 -2 -12 8 -27 22 -34 32 -147 115 -227 167 -75 50
-286 156 -308 156 -10 0 -18 5 -18 10 0 6 -10 10 -23 10 -13 0 -28 5 -35 12
-7 7 -12 8 -12 4 0 -5 -6 -4 -13 2 -7 6 -31 15 -52 21 -22 5 -66 17 -99 26
-32 9 -70 18 -85 21 -62 10 -146 25 -175 31 -34 7 -2980 16 -2987 9z"/>
</g>
</svg>
