<svg width="1024" height="1024" viewBox="0 0 1024 1024" fill="none" xmlns="http://www.w3.org/2000/svg">
<path d="M78.2229 968.301C78.2229 982.52 87.7025 992 101.922 992C116.141 992 125.621 982.52 125.621 968.301C125.621 754.971 298.656 581.935 511.987 581.935C725.317 581.935 898.366 754.971 898.366 968.301C898.366 982.52 907.845 992 922.065 992C936.284 992 945.764 982.52 945.764 968.301C945.764 771.553 813.023 605.634 635.248 551.107C725.317 506.072 786.961 413.586 786.961 306.961C786.961 155.261 663.7 32 511.987 32C360.273 32 237.039 155.261 237.039 306.961C237.039 413.626 298.67 506.072 388.739 551.107C208.6 603.258 78.2229 769.177 78.2229 968.301ZM284.45 304.544C284.45 178.92 386.376 76.9812 512 76.9812C637.624 76.9812 739.563 178.973 739.563 304.544C739.563 430.115 637.651 532.147 512 532.147C386.349 532.147 284.45 430.222 284.45 304.544Z" 
  fill="orange"/>
<line x1="101" y1="967" x2="922" y2="967" stroke="orange" stroke-width="50"/>
</svg>